<svg xmlns="http://www.w3.org/2000/svg" viewBox="0 0 443.6 443.6" width="512" height="512"><style>.a{fill:#FFF;}.b{fill:#333;}</style><path d="M332.2 188.5c18.4 35.5 29.4 75.5 29.4 107.8 0 77.2-62.6 139.8-139.8 139.8s-139.8-62.6-139.8-139.8c0-32.3 11-72.3 29.4-107.8 11.2-21.5 20.8-43.7 28.9-66.5 14.7-41.8 45.6-83 81.5-83 35.9 0 66.9 41.2 81.5 83C311.3 144.8 321 167 332.2 188.5zM287.3 302.2c0-36.1-29.3-94-65.4-94s-65.4 57.9-65.4 94 29.3 65.4 65.4 65.4S287.3 338.3 287.3 302.2z" fill="#9AD14B"/><path d="M221.8 208.1c36.1 0 65.4 57.9 65.4 94s-29.3 65.4-65.4 65.4 -65.4-29.3-65.4-65.4S185.7 208.1 221.8 208.1z" fill="#B27214"/><path d="M260.9 326.2c-1 0-2-0.2-2.9-0.6 -3.8-1.6-5.6-6-4-9.8 1.8-4.3 2.7-8.9 2.7-13.6 0-12.4-6-30.7-14.5-44.4 -2.5-4-5.2-7.6-7.9-10.6 -2.8-3.1-2.6-7.8 0.5-10.6 3.1-2.8 7.8-2.6 10.6 0.5 3.3 3.7 6.5 7.9 9.5 12.7 10.2 16.4 16.8 36.9 16.8 52.4 0 6.7-1.3 13.3-3.9 19.4C266.6 324.5 263.8 326.2 260.9 326.2z" class="a"/><path d="M221.8 200.6c-19.1 0-37.8 13.1-52.6 37 -12.5 20.1-20.3 44.8-20.3 64.5 0 40.2 32.7 72.9 72.9 72.9 40.2 0 72.9-32.7 72.9-72.9 0-19.7-7.8-44.5-20.3-64.5C259.6 213.8 240.9 200.6 221.8 200.6zM221.8 360.1c-31.9 0-57.9-26-57.9-57.9 0-32.6 27.1-86.5 57.9-86.5 30.9 0 57.9 53.9 57.9 86.5C279.8 334.1 253.8 360.1 221.8 360.1z" class="b"/><path d="M338.8 185.1c-11.1-21.3-20.6-43.4-28.4-65.6 -14.4-41-44.6-82.4-81.1-87.5V7.5c0-4.1-3.4-7.5-7.5-7.5s-7.5 3.4-7.5 7.5v24.5c-36.5 5.1-66.7 46.4-81.1 87.5 -7.8 22.2-17.3 44.3-28.4 65.6C85.9 221.6 74.5 263.2 74.5 296.4c0 81.2 66.1 147.3 147.3 147.3S369.1 377.6 369.1 296.4C369.1 263.2 357.8 221.6 338.8 185.1zM221.8 428.6c-72.9 0-132.3-59.3-132.3-132.3 0-30.9 10.7-69.9 28.6-104.4 11.4-22 21.2-44.7 29.3-67.5 13.2-37.5 42.1-78 74.4-78 32.3 0 61.3 40.4 74.4 78 8 22.9 17.9 45.6 29.3 67.5 17.9 34.5 28.6 73.5 28.6 104.4C354.1 369.3 294.8 428.6 221.8 428.6z" class="b"/><circle cx="221.9" cy="231.4" r="7.5" class="a"/></svg>